<?xml version="1.0" encoding="UTF-8"?>
<svg id="Layer_2" xmlns="http://www.w3.org/2000/svg" xmlns:xlink="http://www.w3.org/1999/xlink" viewBox="0 0 80.97 85.3">
  <defs>
    <style>
      .cls-1 {
        fill: #020203;
      }

      .cls-2 {
        fill: url(#linear-gradient-4);
      }

      .cls-3 {
        fill: url(#linear-gradient-3);
      }

      .cls-4 {
        fill: url(#linear-gradient-2);
      }

      .cls-5 {
        fill: url(#linear-gradient);
      }

      .cls-6 {
        fill: #fff;
      }

      .cls-7 {
        fill: #0e1a24;
      }

      .cls-8 {
        fill: #f59240;
      }

      .cls-9 {
        fill: #e37625;
      }

      .cls-10 {
        fill: #0b2037;
      }
    </style>
    <linearGradient id="linear-gradient" x1="27.4" y1="7.98" x2="39.95" y2="7.98" gradientUnits="userSpaceOnUse">
      <stop offset="0" stop-color="#fff" stop-opacity="0"/>
      <stop offset=".48" stop-color="#606262" stop-opacity=".5"/>
      <stop offset=".53" stop-color="#858686" stop-opacity=".38"/>
      <stop offset=".63" stop-color="#c8c9c9" stop-opacity=".17"/>
      <stop offset=".72" stop-color="#f1f1f1" stop-opacity=".04"/>
      <stop offset=".82" stop-color="#fff" stop-opacity="0"/>
    </linearGradient>
    <linearGradient id="linear-gradient-2" x1="67.62" y1="19.37" x2="21.69" y2="76.59" gradientUnits="userSpaceOnUse">
      <stop offset=".09" stop-color="#fff"/>
      <stop offset=".47" stop-color="#dbe1eb" stop-opacity=".5"/>
      <stop offset=".52" stop-color="#e5e9f0" stop-opacity=".64"/>
      <stop offset=".58" stop-color="#eef1f5" stop-opacity=".77"/>
      <stop offset=".63" stop-color="#f5f7f9" stop-opacity=".87"/>
      <stop offset=".68" stop-color="#fafbfc" stop-opacity=".94"/>
      <stop offset=".74" stop-color="#fdfefe" stop-opacity=".99"/>
      <stop offset=".79" stop-color="#fff"/>
      <stop offset="1" stop-color="#fff"/>
    </linearGradient>
    <linearGradient id="linear-gradient-3" x1="25.69" y1="-14.29" x2="-20.24" y2="42.93" xlink:href="#linear-gradient-2"/>
    <linearGradient id="linear-gradient-4" x1="59.4" y1="12.77" x2="13.47" y2="69.99" xlink:href="#linear-gradient-2"/>
  </defs>
  <g id="Layer_1-2" data-name="Layer_1">
    <g>
      <polygon class="cls-6" points="42.16 67.98 42.16 67.98 42.17 67.98 42.16 67.98"/>
      <ellipse class="cls-6" cx="23.94" cy="7.96" rx="2.32" ry="1.81"/>
      <path class="cls-8" d="M29.93,8.84c-1.38.43-3.08,1.26-1.99,4.32.06.17.2.43.37.77.91,1.87,2.06,4.27,2.06,7.09,0,3.26-1,6-3.09,9.12-2.02,3.03-4.7,5.87-7.25,8.25l-6.84,5.66c-.66.48-1.07.77-1.15.82l-.99.68-.05-1.21c0-.08-.02-.56-.04-1.34,2.99-2.75,10.91-10.14,12.92-12.94,2.49-3.46,4.57-8.59,1.99-12.6-2.58-4.02-9.46-.75-9.46-.75.48-.95.9-1.69,1.22-2.23.25-.43.45-.73.56-.91,0,0,2.69-5.47-1.54-4.69-2.37.41-4.17.66-5.62-.08.01-.05.11-.1.3-.11.31-.03.71-.12,1.1-.24.95-.28,1.86-.68,1.33-.51-.16.05-.39.11-.67.15.7-.16,1.44-.43,2.16-.84.15-.09.3-.18.45-.28,2.46-1.65,5.06-1.74,5.06-1.74,0,0,0,0-.02-.01,3.34.05,5.27,1.17,6.54,2.36l-1.31.17h-.02s-.56-1.13-1.76-1.34c0,0-.16-.03-.33-.03-1.17-.2-1.57.72-1.58,1.14,0,.36,0,1.21,1,1.54,1.08.35,1.96-.26,2.07-.34,4.33-.72,7.06-.49,8.74-.06-.81-.13-1.52-.17-2.15-.16-1.24.12-2.05.33-2.05.33Z"/>
      <path class="cls-10" d="M20.07,50.19v-2.16s0-1.1,0-1.1h0l-.02-8.54-6.84,5.66.02,7.97h0v3.41s.02,3.2.02,3.2c0,0,2.58,0,4.29-1.08,1.65-1.05,2.56-2.49,2.55-4.3v-3.05ZM20,47.37s0,.05-.01.08c0-.03,0-.05.01-.08ZM19.89,47.88s0,.02,0,.02c0,0,0-.02,0-.02ZM17.46,54.32c-1.1.7-2.56.95-3.48,1.05v-3.41c.93-.09,2.38-.35,3.48-1.05.93-.59,1.63-1.3,2.06-2.14v3.4c-.44.83-1.14,1.55-2.06,2.14ZM19.74,51.72c.06-.15.11-.31.16-.46-.04.16-.1.31-.16.46ZM19.54,52.17c.05-.09.09-.19.13-.29-.04.1-.08.19-.13.29Z"/>
      <path class="cls-8" d="M10.95,4.53c0,.67.25,1.03.38,1.17.64-.04,1.28-.14,1.94-.29-.12-.14-.38-.5-.38-1.17,0-.38.13-.71.28-.95-.69.14-1.33.25-1.91.3-.01,0-.02,0-.03,0-.15.25-.27.56-.28.94Z"/>
      <path class="cls-8" d="M23.05,3.41c-.26.6-.07.96-.03,1.04,1.89.37,3.34,1.21,4.33,1.95.1-.01.53-.05,1.14-.09-.11-.17-1.72-2.54-4.51-3.56-.29.05-.74.21-.94.65Z"/>
      <path class="cls-8" d="M17.32,3.28c-.16.6-.03,1.01.06,1.2.62-.11,1.28-.19,1.99-.23-.07-.15-.21-.51-.06-1.05.14-.52.54-.81.8-.94-.76.02-1.5.08-2.22.17-.23.19-.46.46-.56.85Z"/>
      <path d="M25.99,7.75h-.06s-.02.01-.02.01l-.03.05c-.09-.08-.19-.16-.29-.25-.38-.31-.51-.29-.51-.29.2.67-.12,1.37-.71,1.56-.59.19-1.24-.2-1.44-.86-.2-.67.12-1.37.71-1.56.08-.02.16-.03.25-.03.17,0,.33.03.33.03,1.2.21,1.76,1.33,1.76,1.33h.02ZM23.69,7.44c-.04-.15-.19-.24-.32-.19-.13.04-.21.2-.16.35.04.15.19.24.32.19.13-.04.21-.2.16-.35ZM24.4,7.03c-.04-.15-.19-.24-.32-.19-.13.04-.21.2-.16.35.04.15.19.24.32.19.13-.04.21-.2.16-.35Z"/>
      <path class="cls-7" d="M34.13,8.66c-1.69-.44-4.42-.66-8.74.06,0,0-.01,0-.02,0l.51-.91.03-.05h.02s.06-.01.06-.01l1.31-.17,1.17-.15-1.13-1.02s0,0,.02,0c.1-.01.53-.05,1.14-.09,0,0,0,.01,0,.01,4.49-.18,9.28,1.94,11.38,3.32,1.19.78-.72.09-5.75-.98Z"/>
      <path d="M11.74,7.32c.06-.45.31-.72.53-.86-.54.05-1.07.06-1.61.02-1.52-.12-2.6-.62-3.3-1.1,0,.4,1.05,1.61,2.11,2.23.77.45,1.74.59,2.59.57-.21-.2-.37-.48-.31-.86Z"/>
      <path d="M15.69,5.85c-.99.66-.56,1.24-.41,1.4.15-.09.3-.18.45-.28,2.46-1.65,5.06-1.74,5.06-1.74,0,0,0,0-.02-.01-.09,0-.19,0-.29,0-1.74,0-3.31.32-4.79.64Z"/>
      <path d="M7.6,4.22c.9,1.08,2.23,1.4,2.6,1.46.38.04.76.04,1.13.02-.12-.14-.38-.5-.38-1.17,0-.38.12-.69.28-.94-1.31.12-2.29-.1-2.94-.25-1.14-.26-1.42-.02-.68.87Z"/>
      <path d="M12.89,4.24c0,.67.26,1.03.38,1.17,1.25-.27,2.57-.68,4.11-.93-.09-.18-.22-.6-.06-1.2.11-.39.34-.67.56-.85-1.72.22-3.32.59-4.71.86-.15.25-.28.57-.28.95Z"/>
      <path d="M19.31,3.2c-.15.54-.01.9.06,1.05.82-.05,1.7-.04,2.66.05.35.03.68.08,1,.15-.05-.08-.24-.44.03-1.04.2-.44.65-.6.94-.65-.55-.2-1.15-.35-1.79-.42-.71-.08-1.41-.1-2.1-.08-.25.13-.65.42-.8.94Z"/>
      <path class="cls-8" d="M13.78,7.94c-.16.05-.39.11-.67.15-.31.05-.67.09-1.06.09.03.03.06.06.1.08.1.08.21.14.3.18.95-.28,1.86-.68,1.33-.51Z"/>
      <path class="cls-8" d="M15.69,5.85c-1.18.25-2.31.51-3.42.61-.22.15-.46.41-.53.86-.05.38.11.66.31.86.39,0,.75-.04,1.06-.09.7-.16,1.44-.43,2.16-.84-.15-.16-.58-.74.41-1.4Z"/>
      <path class="cls-9" d="M27.33,6.4s0,0,.02,0c-.98-.74-2.44-1.58-4.33-1.95-.32-.06-.65-.11-1-.15-.96-.09-1.84-.1-2.66-.05-.71.04-1.36.12-1.99.23-1.54.26-2.86.66-4.11.93-.66.14-1.3.25-1.94.29-.37.02-.75.02-1.13-.02.06.01.09.02.09.02,0,0-1.23.15-2.46-.36-.33-.14-.47-.1-.47.05.7.47,1.78.98,3.3,1.1.54.04,1.07.03,1.61-.02,1.11-.1,2.24-.35,3.42-.61,1.48-.32,3.04-.63,4.79-.64.1,0,.19,0,.29,0,3.34.05,5.27,1.17,6.54,2.36l1.17-.15-1.13-1.02Z"/>
      <path class="cls-6" d="M24.24,7.38c.13-.04.21-.2.16-.35-.04-.15-.19-.24-.32-.19-.13.04-.21.2-.16.35.04.15.19.24.32.19Z"/>
      <path class="cls-6" d="M23.37,7.25c-.13.04-.21.2-.16.35.04.15.19.24.32.19.13-.04.21-.2.16-.35s-.19-.24-.32-.19Z"/>
      <path class="cls-7" d="M15.35,38.89c-.33.31-2.35,2.22-2.36,2.22.72-.67,1.52-1.43,2.36-2.22Z"/>
      <polygon class="cls-7" points="13 41.11 13 41.11 13 41.11 13 41.11"/>
      <path d="M20.76,5.22s-2.56.71-4.64,2.06c-2.08,1.35-3.75,1.68-5.07,1.52,0,0-.05-.1.17-.11.99-.05,2.7-.64,4.17-1.55,1.9-1.17,3.15-1.76,5.37-1.92Z"/>
      <g>
        <path class="cls-6" d="M23.4,18.76c-4.27-1.81-8.16.99-8.16.99h0c-.38.82-.79,1.75-1.21,2.79,0,0,3.45-3.1,7.44-.46,3.08,2.03,3.49,6.79,3.52,8.87,1-1.41,1.95-3.08,2.59-4.84-.31-2.29-1.25-6.11-4.18-7.35Z"/>
        <path class="cls-6" d="M15.24,30.83c-.55-.76-2.09-.06-3,.8-.39.37-.69.77-.92,1.14-.13,1.01-.24,2.05-.32,3.08-.02.24-.03.48-.05.72.35-.56,1.17-1.71,1.93-1.36.99.46.12,7.95.12,7.95h0s2.21-2.08,2.57-2.42c.36-.34,1.25-7.72-.33-9.92Z"/>
        <path class="cls-6" d="M20.03,25.6c-2.98-3.29-7.05-.05-7.15.11-.34,1.08-.66,2.25-.94,3.52.31-.3,4.1-3.91,5.93-.97,2.53,4.06.61,9.68.61,9.68h0c1.01-.99,2.01-1.98,2.91-2.9.86-1.88.4-7.51-1.35-9.44Z"/>
      </g>
      <path class="cls-5" d="M28.57,6.33s0,0,0-.01c-.61.03-1.04.08-1.14.09-.01,0-.02,0-.02,0l.71.64c.79.03,2.22.11,4.13.34,3.04.36,6.16,1.76,7.71,2.25-2.1-1.38-6.89-3.49-11.38-3.32Z"/>
      <path class="cls-10" d="M19.54,40v8.03s-2.02,3.28-5.56,3.15v-6.99l5.56-4.18Z"/>
      <path class="cls-1" d="M26.98,17.41c-2.74-3.87-7.31-2.3-9.31-1.35h0s-.02,0-.02,0c-.29.14-.53.27-.7.36l-.53.28s-3.34,6.59-4.24,11.33c-.08.41-.15.79-.23,1.15-.02.02-.41,1.8-.56,2.74-.01.09-.03.19-.04.28-.23,1.35-.4,2.88-.5,5.32-.04.67-.07,1.34-.09,1.98-.03,1.04-.05,2.03-.05,2.93,0,.14,0,.28,0,.41,0,.94.01,1.76.03,2.39.38-.35.83-.77,1.34-1.24,0,0,0,0,0,0,.28-.26.57-.53.87-.81,0,0,.87-7.49-.12-7.95-.46-.21-.94.13-1.33.55.1-1.24.24-2.55.43-3.86.08-.09.17-.18.26-.27.3-.28.66-.55,1.04-.75,0,0,0,0,0,0,.77-.42,1.59-.57,1.96-.05,1.58,2.2.69,9.58.33,9.92.95-.9,1.94-1.86,2.91-2.8h0s1.92-5.62-.61-9.68c-1.44-2.32-4.1-.57-5.31.42.16-.74.35-1.46.56-2.16.07-.24.15-.48.22-.72.13-.41.43-.75.81-.95.48-.25,1.06-.49,1.7-.62,0,0,0,0,0,0,1.31-.27,2.85-.1,4.17,1.36,1.75,1.93,2.21,7.56,1.35,9.44,1.54-1.58,2.81-2.98,3.48-3.91.04-.06.08-.12.13-.18-.03-2.08-.44-6.84-3.52-8.87-2.89-1.91-5.49-.82-6.71-.07.18-.44.37-.86.55-1.26.54-1.2,1.3-1.7,2.49-2.19.41-.12.85-.23,1.33-.3,0,0,0,0,0,0,1.27-.19,2.74-.13,4.27.51,2.93,1.24,3.87,5.07,4.18,7.35,1.08-2.93,1.3-6.1-.55-8.71Z"/>
      <path class="cls-6" d="M17.46,50.92c-1.1.7-2.56.95-3.48,1.05v3.41c.93-.09,2.38-.35,3.48-1.05.93-.59,1.63-1.3,2.06-2.13v-3.41c-.44.83-1.14,1.55-2.06,2.14Z"/>
      <path class="cls-8" d="M19.81,9.58c-.49-1.97-2.86-1.47-4.75-.79-1.89.69-4,0-4,0,1.45.73,3.25.49,5.62.08,4.23-.78,1.54,4.69,1.54,4.69-.12.18-.31.48-.56.91-.17.28-.36.62-.58,1.02.08-.15,3.35-3.43,2.74-5.91Z"/>
      <path class="cls-9" d="M19.81,9.58c-.49-1.97-2.86-1.47-4.75-.79-1.89.69-4,0-4,0,1.45.73,3.25.49,5.62.08,4.23-.78,1.54,4.69,1.54,4.69-.12.18-.31.48-.56.91-.17.28-.36.62-.58,1.02.08-.15,3.35-3.43,2.74-5.91Z"/>
    </g>
    <g>
      <path class="cls-4" d="M33.72,58.7c-1.6,0-2.91,1.31-2.91,2.91s1.31,2.91,2.91,2.91,2.91-1.31,2.91-2.91-1.31-2.91-2.91-2.91Z"/>
      <path class="cls-3" d="M.06,13.86h17.06s.02-.04.03-.05c.17-.28.3-.49.39-.62.07-.14.29-.64.48-1.24.02-.6.09-1.28.21-1.95-.08-.26-.25-.41-.72-.43-.03,0-.06,0-.09,0h-.03c-.17,0-.37.02-.59.06-.52.09-.9.15-1.25.2-.93.14-1.62.2-2.25.2-1.02,0-1.88-.18-2.61-.55l-.22-.11-.11-.22c-.06-.12-.09-.26-.09-.39-.41-.1-.82-.26-1.2-.48-.89-.53-2.48-1.94-2.48-2.88,0-.26.1-.49.28-.66.03-.02.06-.05.09-.08-.36-.44-.68-.96-.48-1.51.06-.16.26-.53.81-.63h.01s.04,0,.04,0c.04,0,.09,0,.13-.01.03,0,.05,0,.07,0h.03s.05,0,.08,0c.03,0,.06,0,.09,0,.03,0,.06,0,.1,0,.03,0,.07,0,.1.01.04,0,.06,0,.09.01.04,0,.08.01.12.02h.08c.06.03.13.04.2.06h.02c.43.1,1.14.26,2.03.26.22,0,.45-.01.68-.03h.03c.61-.06,1.3-.19,1.84-.29.34-.07.69-.14,1.05-.21.92-.19,1.94-.4,3.01-.56.69-1.14.49-1.77.49-1.77H.19c.14,5.44,3.95,9.79,3.95,9.79h-.95C2.1,9.79.06,10.6.06,13.86Z"/>
      <path class="cls-2" d="M76.59,36h-8.86v18.37c0,2.82-2.29,5.11-5.11,5.11h-.45c1-1.38,1.58-3.07,1.58-4.9v-18.57h-9.67v18.37c0,2.49-1.79,4.57-4.15,5.02v-23.34h-9.4v15.13h-11.85v-15.18h-5.16c-.85.9-1.76,1.81-2.73,2.72l.04,14.52c0,2.03-1,3.74-2.91,4.95-1.87,1.18-4.58,1.2-4.69,1.2h-.76l-.04-13.86-2.44,1.41-.04-1.69c-.02-.78-.03-1.6-.03-2.41v-.42c0-1,.02-1.99.05-2.95.02-.65.05-1.33.09-2,.09-2.21.25-3.82.51-5.39v-.1c.02-.06.03-.12.04-.18.03-.22.08-.49.14-.82.11-.64.24-1.29.37-1.91.07-.3.14-.61.24-1l.04-.19c.91-4.79,4.17-11.26,4.31-11.53l.11-.22h.01c.17-.34.35-.67.52-.99H4.38v41.97c0,2.42-1.96,5.47-4.38,5.47v.38h4.38s6.48,0,6.48,0h9.43c4.58,0,8.3-3.67,8.39-8.22h11.85v8.22h14.01c1.61,0,3.93-.45,5.2-1.24v1.24h8.44c4.64,0,8.4-3.76,8.4-8.4v-12.72c0-2.42,1.96-5.47,4.38-5.47v-.38h-4.38Z"/>
    </g>
    <g>
      <path class="cls-6" d="M9.9,85.3c-1.02,0-1.96-.22-2.84-.65-.88-.44-1.67-1.03-2.37-1.77l.81-1.3c.13-.2.26-.34.41-.42.14-.08.29-.13.45-.13.2,0,.4.04.59.14.19.09.39.21.59.37.41.28.8.49,1.15.65.35.15.78.23,1.28.23.69,0,1.23-.17,1.63-.51s.6-.8.6-1.38c0-.25-.07-.47-.2-.66-.14-.19-.31-.35-.54-.48-.22-.13-.48-.25-.77-.35-.29-.1-.6-.19-.91-.27-.52-.14-1.03-.31-1.54-.5-.52-.2-.98-.46-1.39-.79-.42-.33-.75-.75-1.01-1.26s-.39-1.15-.39-1.92c0-.68.14-1.3.41-1.85.27-.54.64-1.01,1.09-1.38.46-.38.99-.67,1.6-.87.61-.2,1.25-.3,1.92-.3,1.74,0,3.29.66,4.63,1.97l-.69,1.29c-.23.44-.53.66-.9.66-.19,0-.39-.06-.62-.17-.21-.11-.4-.22-.57-.32-.16-.1-.33-.2-.5-.28-.17-.08-.36-.15-.57-.2s-.46-.07-.76-.07c-.64,0-1.13.14-1.47.43s-.5.65-.5,1.08c0,.22.07.42.2.6.14.18.31.33.54.46.22.13.48.25.78.36.3.11.61.21.92.3.52.15,1.03.33,1.56.52s.99.45,1.39.77c.41.32.74.71,1,1.2.26.48.39,1.09.39,1.84s-.14,1.46-.41,2.08c-.27.62-.65,1.14-1.14,1.57-.49.43-1.06.77-1.71,1-.65.23-1.36.35-2.13.35Z"/>
      <path class="cls-6" d="M21.72,85.28l6.16-15.38h2.79l6.11,15.38h-2.4c-.63,0-1.05-.29-1.27-.86l-1.14-2.98h-5.45l-1.14,2.96c-.09.24-.24.45-.45.62-.21.17-.49.26-.82.26h-2.4ZM29.25,74.4l-1.67,4.35h3.35l-1.67-4.35Z"/>
      <path class="cls-6" d="M44.67,85.28v-15.38h5.56c.69,0,1.34.08,1.97.23.63.15,1.18.38,1.65.7.47.32.85.72,1.13,1.22.28.5.42,1.1.42,1.8,0,.81-.13,1.5-.4,2.05-.26.55-.65,1-1.17,1.36.71.33,1.24.77,1.57,1.32.33.55.49,1.23.49,2.05s-.15,1.5-.46,2.08c-.31.59-.72,1.07-1.23,1.45-.51.38-1.11.66-1.78.85-.67.19-1.38.28-2.12.28h-5.62ZM47.85,76.2h1.89c.86,0,1.49-.16,1.89-.48.4-.32.6-.75.6-1.28,0-.6-.2-1.04-.59-1.32-.39-.28-1-.42-1.83-.42h-1.95v3.5ZM47.85,82.46h2.4c.89,0,1.52-.17,1.9-.53.38-.35.57-.81.57-1.38,0-.51-.2-.93-.61-1.23s-1.03-.46-1.86-.46h-2.4v3.6Z"/>
      <path class="cls-6" d="M62.8,85.28l6.16-15.38h2.79l6.11,15.38h-2.4c-.63,0-1.05-.29-1.27-.86l-1.14-2.98h-5.45l-1.14,2.96c-.09.24-.24.45-.45.62-.21.17-.49.26-.82.26h-2.4ZM70.33,74.4l-1.67,4.35h3.35l-1.67-4.35Z"/>
    </g>
  </g>
</svg>